<mxfile host="65bd71144e">
    <diagram id="cVLzJ7fc6bBc2KyYqyXt" name="Page-1">
        <mxGraphModel dx="1519" dy="1515" grid="1" gridSize="10" guides="1" tooltips="1" connect="1" arrows="1" fold="1" page="1" pageScale="1" pageWidth="850" pageHeight="1100" math="0" shadow="0">
            <root>
                <mxCell id="0"/>
                <mxCell id="1" parent="0"/>
                <mxCell id="2" value="&lt;font face=&quot;Garamond&quot; size=&quot;1&quot; color=&quot;#cccc00&quot;&gt;&lt;b style=&quot;font-size: 60px&quot;&gt;FormR&lt;/b&gt;&lt;/font&gt;" style="text;html=1;resizable=0;autosize=1;align=center;verticalAlign=middle;points=[];fillColor=none;strokeColor=none;rounded=0;" vertex="1" parent="1">
                    <mxGeometry x="-10" y="-20" width="200" height="30" as="geometry"/>
                </mxCell>
            </root>
        </mxGraphModel>
    </diagram>
</mxfile>